<svg version="1.1" id="Layer_1" xmlns="http://www.w3.org/2000/svg" xmlns:xlink="http://www.w3.org/1999/xlink" x="0px" y="0px"
	 width="100%" viewBox="0 0 1255 362" enable-background="new 0 0 1255 362" xml:space="preserve">
<path fill="#FFFFFF" opacity="1.000000" stroke="none" 
	d="
M1.000000,92.000000 
	C1.000000,61.685188 1.000000,31.370377 1.000000,1.000000 
	C202.691559,1.000000 404.383148,1.000000 606.422729,1.367364 
	C603.213867,3.153510 599.520874,4.305246 596.122620,6.035723 
	C578.165466,15.180103 576.103027,42.319180 589.325623,55.021870 
	C597.652405,63.021263 607.271729,64.891258 618.277649,65.173515 
	C637.752380,65.672958 654.974487,49.779751 652.141479,27.923704 
	C650.787842,17.480837 645.490112,10.585026 636.579224,5.986018 
	C632.854004,4.063395 628.867615,2.646712 625.000000,0.999997 
	C835.209534,1.000000 1045.419067,1.000000 1256.000000,1.000000 
	C1256.000000,31.357231 1256.000000,61.715977 1255.594727,92.401245 
	C1254.612671,92.486885 1254.036621,92.036713 1253.459351,92.035522 
	C1235.474976,91.998428 1217.490601,92.005135 1199.661255,92.005135 
	C1181.515625,135.556778 1163.464233,178.881882 1145.120117,222.909851 
	C1144.053711,221.326950 1143.383057,220.618042 1143.037598,219.775726 
	C1137.933105,207.332809 1132.933350,194.846680 1127.785034,182.422073 
	C1120.916870,165.846237 1113.895020,149.334061 1107.026855,132.758194 
	C1101.939331,120.479843 1097.077026,108.107185 1091.877197,95.877335 
	C1091.197021,94.277328 1089.118164,92.184975 1087.662964,92.165977 
	C1068.603882,91.917076 1049.540405,92.000519 1030.081177,92.000519 
	C1035.147217,103.799248 1039.986206,115.136620 1044.878906,126.450783 
	C1054.801758,149.396759 1064.807373,172.307068 1074.679688,195.274719 
	C1086.890747,223.683395 1099.017578,252.128433 1111.133423,280.577911 
	C1112.568481,283.947388 1115.684570,288.350250 1114.603882,290.707458 
	C1111.601318,297.257294 1107.680664,303.907471 1102.516846,308.835358 
	C1092.254028,318.629211 1079.697998,317.403809 1067.529297,312.693359 
	C1061.487915,310.354736 1055.975098,306.650208 1050.395630,303.656158 
	C1044.263428,315.441864 1038.019531,327.784973 1031.412231,339.930359 
	C1029.453735,343.530426 1029.936523,345.524048 1033.221436,347.821411 
	C1041.647217,353.714417 1051.007202,357.308838 1060.808350,360.033264 
	C1063.598267,360.808807 1066.272583,361.999634 1069.000000,363.000000 
	C714.498901,363.000000 359.997803,363.003632 5.496758,362.858856 
	C4.208719,362.858307 0.870924,365.326935 1.468657,360.500000 
	C20.868992,360.000000 39.800667,360.000000 59.291519,360.000000 
	C59.291519,330.009003 59.291519,300.535614 59.291519,270.606598 
	C60.317482,271.202057 60.785038,271.365936 61.110737,271.677948 
	C75.821472,285.769409 93.778320,291.550781 113.716522,291.931213 
	C119.622688,292.043945 125.553658,291.447327 131.457352,290.976196 
	C143.667114,290.001862 155.111618,286.167847 165.838821,280.517365 
	C175.736343,275.303894 184.254623,268.133972 191.746567,259.774628 
	C198.829758,251.871445 204.305817,242.986710 207.993118,233.061050 
	C214.354416,215.937469 217.614380,198.337387 214.954010,180.045944 
	C213.676651,171.263443 212.820496,162.265030 210.172958,153.869141 
	C204.885818,137.102600 195.680389,122.690742 181.883301,111.264954 
	C165.351517,97.574455 146.354767,90.468811 125.202881,89.134087 
	C117.342880,88.638100 109.350746,89.305016 101.483009,90.086937 
	C90.486481,91.179794 79.976715,94.254555 70.831802,100.716080 
	C65.733459,104.318420 61.041241,108.495537 55.791763,112.714409 
	C55.791763,105.676277 55.791763,98.938011 55.791763,92.000000 
	C37.279884,92.000000 19.139942,92.000000 1.000000,92.000000 
M351.953827,247.633316 
	C352.129547,248.759476 352.137146,249.944183 352.506012,251.003067 
	C358.953644,269.513550 372.507904,280.698639 390.452515,286.928436 
	C405.484070,292.146912 420.944641,292.788361 436.804077,291.175171 
	C453.884216,289.437775 468.578613,283.743683 479.974945,270.566986 
	C480.609039,269.833801 481.655273,269.457092 483.116302,268.529266 
	C483.116302,275.790192 483.116302,282.223816 483.116302,288.783264 
	C501.172089,288.783264 518.906311,288.783264 537.000000,288.783264 
	C537.000000,286.945801 537.000000,285.319641 537.000000,283.693481 
	C537.000000,249.205078 537.142700,214.715714 536.908264,180.228912 
	C536.842651,170.567673 536.421570,160.786606 534.819336,151.287216 
	C532.510132,137.595947 526.940857,124.977455 517.208374,114.819077 
	C500.193146,97.059326 478.189514,90.598969 454.537659,89.113411 
	C433.187347,87.772400 412.016388,89.735123 391.450775,96.047401 
	C379.150940,99.822639 367.496338,105.069260 356.766235,112.666626 
	C363.643768,126.279228 370.442902,139.736649 377.370331,153.448029 
	C378.378845,152.811188 378.913361,152.478409 379.443237,152.138428 
	C399.876648,139.027542 421.879089,132.629898 446.347198,135.937286 
	C456.832520,137.354599 465.661926,141.555969 472.226410,149.831360 
	C477.521545,156.506607 479.439240,164.321426 478.899536,173.000000 
	C462.726379,173.000000 447.077942,173.184906 431.436157,172.941055 
	C419.086639,172.748535 406.957916,174.098541 395.006287,177.027496 
	C380.366302,180.615295 367.932648,187.842316 359.006958,200.248978 
	C348.752045,214.503265 348.337860,230.468491 351.953827,247.633316 
M698.000000,175.500000 
	C698.000000,213.261734 698.000000,251.023468 698.000000,288.708221 
	C717.316101,288.708221 736.054932,288.708221 755.000000,288.708221 
	C755.000000,259.771942 754.846252,231.125595 755.091797,202.482681 
	C755.167542,193.650253 755.855408,184.760284 757.082581,176.011627 
	C761.827576,142.184311 798.912781,130.985321 823.410950,144.320770 
	C836.137939,151.248596 840.667297,164.032654 840.845337,177.674149 
	C841.306335,213.000519 841.000000,248.336899 841.000000,283.669281 
	C841.000000,285.417694 841.000000,287.166077 841.000000,288.647339 
	C860.772156,288.647339 879.845703,288.647339 899.000000,288.647339 
	C899.000000,250.300018 899.039429,212.305161 898.955627,174.310593 
	C898.943726,168.894882 898.536682,163.459152 897.966187,158.069305 
	C895.855957,138.129547 888.789246,120.734550 872.986389,107.350395 
	C859.748047,96.138275 844.406860,90.264282 827.516785,89.245972 
	C816.771790,88.598152 805.742798,89.478485 795.095093,91.223183 
	C782.493164,93.288094 770.799683,98.378578 760.760498,106.689484 
	C758.460327,108.593658 755.889648,110.170998 752.787415,112.362152 
	C752.787415,105.041466 752.787415,98.630157 752.787415,92.285339 
	C734.363586,92.285339 716.291443,92.285339 698.000000,92.285339 
	C698.000000,119.880051 698.000000,147.190033 698.000000,175.500000 
M253.000000,255.500000 
	C253.000000,266.597443 253.000000,277.694885 253.000000,288.709106 
	C272.648956,288.709106 291.720490,288.709106 310.711975,288.709106 
	C310.711975,198.017487 310.711975,107.617073 310.711975,17.290916 
	C291.351013,17.290916 272.279510,17.290916 253.000000,17.290916 
	C253.000000,96.554428 253.000000,175.527222 253.000000,255.500000 
M1008.000000,97.500000 
	C1008.000000,70.738594 1008.000000,43.977196 1008.000000,17.289675 
	C988.353516,17.289675 969.282043,17.289675 950.286804,17.289675 
	C950.286804,107.979584 950.286804,198.379822 950.286804,288.710327 
	C969.646484,288.710327 988.717957,288.710327 1008.000000,288.710327 
	C1008.000000,225.113953 1008.000000,161.806976 1008.000000,97.500000 
M588.000000,170.500000 
	C588.000000,209.926300 588.000000,249.352615 588.000000,288.712738 
	C607.642212,288.712738 626.713379,288.712738 645.715210,288.712738 
	C645.715210,223.024338 645.715210,157.623581 645.715210,92.287247 
	C626.357849,92.287247 607.286682,92.287247 588.267517,92.287247 
	C588.144531,92.884193 588.024170,93.195992 588.023987,93.507858 
	C588.009949,118.838570 588.005310,144.169281 588.000000,170.500000 
z"/>
<path fill="#000000" opacity="1.000000" stroke="none" 
	d="
M1.000000,92.468658 
	C19.139942,92.000000 37.279884,92.000000 55.791763,92.000000 
	C55.791763,98.938011 55.791763,105.676277 55.791763,112.714409 
	C61.041241,108.495537 65.733459,104.318420 70.831802,100.716080 
	C79.976715,94.254555 90.486481,91.179794 101.483009,90.086937 
	C109.350746,89.305016 117.342880,88.638100 125.202881,89.134087 
	C146.354767,90.468811 165.351517,97.574455 181.883301,111.264954 
	C195.680389,122.690742 204.885818,137.102600 210.172958,153.869141 
	C212.820496,162.265030 213.676651,171.263443 214.954010,180.045944 
	C217.614380,198.337387 214.354416,215.937469 207.993118,233.061050 
	C204.305817,242.986710 198.829758,251.871445 191.746567,259.774628 
	C184.254623,268.133972 175.736343,275.303894 165.838821,280.517365 
	C155.111618,286.167847 143.667114,290.001862 131.457352,290.976196 
	C125.553658,291.447327 119.622688,292.043945 113.716522,291.931213 
	C93.778320,291.550781 75.821472,285.769409 61.110737,271.677948 
	C60.785038,271.365936 60.317482,271.202057 59.291519,270.606598 
	C59.291519,300.535614 59.291519,330.009003 59.291519,360.000000 
	C39.800667,360.000000 20.868992,360.000000 1.468657,360.000000 
	C1.000000,270.979095 1.000000,181.958206 1.000000,92.468658 
M137.924225,146.401978 
	C127.549126,138.602692 115.818085,136.208801 103.023575,136.919189 
	C88.139702,137.745575 76.308182,144.313232 68.132179,156.239639 
	C56.238708,173.588745 54.985062,192.754776 61.854458,212.390564 
	C70.647324,237.524460 93.162720,247.667007 116.035652,243.588867 
	C142.949493,238.790253 154.664352,220.482681 156.802689,196.252838 
	C158.475052,177.303101 153.724045,159.950500 137.924225,146.401978 
z"/>
<path fill="#000000" opacity="1.000000" stroke="none" 
	d="
M1069.468628,363.000000 
	C1066.272583,361.999634 1063.598267,360.808807 1060.808350,360.033264 
	C1051.007202,357.308838 1041.647217,353.714417 1033.221436,347.821411 
	C1029.936523,345.524048 1029.453735,343.530426 1031.412231,339.930359 
	C1038.019531,327.784973 1044.263428,315.441864 1050.395630,303.656158 
	C1055.975098,306.650208 1061.487915,310.354736 1067.529297,312.693359 
	C1079.697998,317.403809 1092.254028,318.629211 1102.516846,308.835358 
	C1107.680664,303.907471 1111.601318,297.257294 1114.603882,290.707458 
	C1115.684570,288.350250 1112.568481,283.947388 1111.133423,280.577911 
	C1099.017578,252.128433 1086.890747,223.683395 1074.679688,195.274719 
	C1064.807373,172.307068 1054.801758,149.396759 1044.878906,126.450783 
	C1039.986206,115.136620 1035.147217,103.799248 1030.081177,92.000519 
	C1049.540405,92.000519 1068.603882,91.917076 1087.662964,92.165977 
	C1089.118164,92.184975 1091.197021,94.277328 1091.877197,95.877335 
	C1097.077026,108.107185 1101.939331,120.479843 1107.026855,132.758194 
	C1113.895020,149.334061 1120.916870,165.846237 1127.785034,182.422073 
	C1132.933350,194.846680 1137.933105,207.332809 1143.037598,219.775726 
	C1143.383057,220.618042 1144.053711,221.326950 1145.120117,222.909851 
	C1163.464233,178.881882 1181.515625,135.556778 1199.661255,92.005135 
	C1217.490601,92.005135 1235.474976,91.998428 1253.459351,92.035522 
	C1254.036621,92.036713 1254.612671,92.486885 1255.594727,92.863876 
	C1256.000000,93.000000 1256.000000,93.500000 1255.716675,93.785172 
	C1255.622192,94.380234 1255.811157,94.690125 1256.000000,95.000008 
	C1256.000000,95.000000 1256.000000,95.500000 1255.639282,95.844604 
	C1254.515137,97.070908 1253.470581,97.831329 1253.030151,98.852394 
	C1245.611206,116.048538 1238.285645,133.284882 1230.901733,150.496140 
	C1224.968262,164.326218 1218.938232,178.114929 1213.034790,191.957718 
	C1205.752686,209.033447 1198.556641,226.145874 1191.324585,243.242981 
	C1185.214355,257.687500 1179.372559,272.253174 1172.920898,286.543518 
	C1166.600342,300.542847 1160.361328,314.660126 1152.801147,327.996948 
	C1144.628906,342.413330 1131.874146,352.258118 1116.213379,357.895447 
	C1110.296509,360.025360 1104.079956,361.323029 1098.000000,363.000000 
	C1088.645752,363.000000 1079.291504,363.000000 1069.468628,363.000000 
z"/>
<path fill="#FFFFFF" opacity="1.000000" stroke="none" 
	d="
M1098.468628,363.000000 
	C1104.079956,361.323029 1110.296509,360.025360 1116.213379,357.895447 
	C1131.874146,352.258118 1144.628906,342.413330 1152.801147,327.996948 
	C1160.361328,314.660126 1166.600342,300.542847 1172.920898,286.543518 
	C1179.372559,272.253174 1185.214355,257.687500 1191.324585,243.242981 
	C1198.556641,226.145874 1205.752686,209.033447 1213.034790,191.957718 
	C1218.938232,178.114929 1224.968262,164.326218 1230.901733,150.496140 
	C1238.285645,133.284882 1245.611206,116.048538 1253.030151,98.852394 
	C1253.470581,97.831329 1254.515137,97.070908 1255.639282,96.094604 
	C1256.000000,184.908325 1256.000000,273.816650 1256.000000,363.000000 
	C1203.646118,363.000000 1151.291626,363.000000 1098.468628,363.000000 
z"/>
<path fill="#000000" opacity="1.000000" stroke="none" 
	d="
M624.532043,0.999997 
	C628.867615,2.646712 632.854004,4.063395 636.579224,5.986018 
	C645.490112,10.585026 650.787842,17.480837 652.141479,27.923704 
	C654.974487,49.779751 637.752380,65.672958 618.277649,65.173515 
	C607.271729,64.891258 597.652405,63.021263 589.325623,55.021870 
	C576.103027,42.319180 578.165466,15.180103 596.122620,6.035723 
	C599.520874,4.305246 603.213867,3.153510 606.885376,1.367364 
	C612.688049,1.000000 618.376038,1.000000 624.532043,0.999997 
z"/>
<path fill="#FFFFFF" opacity="1.000000" stroke="none" 
	d="
M1256.000000,94.750008 
	C1255.811157,94.690125 1255.622192,94.380234 1255.716675,94.035172 
	C1256.000000,94.000000 1256.000000,94.500000 1256.000000,94.750008 
z"/>
<path fill="#000000" opacity="1.000000" stroke="none" 
	d="
M351.694397,247.290466 
	C348.337860,230.468491 348.752045,214.503265 359.006958,200.248978 
	C367.932648,187.842316 380.366302,180.615295 395.006287,177.027496 
	C406.957916,174.098541 419.086639,172.748535 431.436157,172.941055 
	C447.077942,173.184906 462.726379,173.000000 478.899536,173.000000 
	C479.439240,164.321426 477.521545,156.506607 472.226410,149.831360 
	C465.661926,141.555969 456.832520,137.354599 446.347198,135.937286 
	C421.879089,132.629898 399.876648,139.027542 379.443237,152.138428 
	C378.913361,152.478409 378.378845,152.811188 377.370331,153.448029 
	C370.442902,139.736649 363.643768,126.279228 356.766235,112.666626 
	C367.496338,105.069260 379.150940,99.822639 391.450775,96.047401 
	C412.016388,89.735123 433.187347,87.772400 454.537659,89.113411 
	C478.189514,90.598969 500.193146,97.059326 517.208374,114.819077 
	C526.940857,124.977455 532.510132,137.595947 534.819336,151.287216 
	C536.421570,160.786606 536.842651,170.567673 536.908264,180.228912 
	C537.142700,214.715714 537.000000,249.205078 537.000000,283.693481 
	C537.000000,285.319641 537.000000,286.945801 537.000000,288.783264 
	C518.906311,288.783264 501.172089,288.783264 483.116302,288.783264 
	C483.116302,282.223816 483.116302,275.790192 483.116302,268.529266 
	C481.655273,269.457092 480.609039,269.833801 479.974945,270.566986 
	C468.578613,283.743683 453.884216,289.437775 436.804077,291.175171 
	C420.944641,292.788361 405.484070,292.146912 390.452515,286.928436 
	C372.507904,280.698639 358.953644,269.513550 352.506012,251.003067 
	C352.137146,249.944183 352.129547,248.759476 351.694397,247.290466 
M408.341248,220.129242 
	C401.855225,233.625336 410.276581,246.136246 422.307404,250.084122 
	C430.319977,252.713440 438.409790,253.602905 446.669525,251.969437 
	C457.753479,249.777420 466.977112,244.863495 474.254425,235.618073 
	C481.315704,226.647110 478.085968,216.895828 478.975739,208.008347 
	C461.217957,208.008347 443.849243,207.439453 426.549133,208.280991 
	C419.363220,208.630539 412.622894,212.447174 408.341248,220.129242 
z"/>
<path fill="#000000" opacity="1.000000" stroke="none" 
	d="
M698.000000,175.000000 
	C698.000000,147.190033 698.000000,119.880051 698.000000,92.285339 
	C716.291443,92.285339 734.363586,92.285339 752.787415,92.285339 
	C752.787415,98.630157 752.787415,105.041466 752.787415,112.362152 
	C755.889648,110.170998 758.460327,108.593658 760.760498,106.689484 
	C770.799683,98.378578 782.493164,93.288094 795.095093,91.223183 
	C805.742798,89.478485 816.771790,88.598152 827.516785,89.245972 
	C844.406860,90.264282 859.748047,96.138275 872.986389,107.350395 
	C888.789246,120.734550 895.855957,138.129547 897.966187,158.069305 
	C898.536682,163.459152 898.943726,168.894882 898.955627,174.310593 
	C899.039429,212.305161 899.000000,250.300018 899.000000,288.647339 
	C879.845703,288.647339 860.772156,288.647339 841.000000,288.647339 
	C841.000000,287.166077 841.000000,285.417694 841.000000,283.669281 
	C841.000000,248.336899 841.306335,213.000519 840.845337,177.674149 
	C840.667297,164.032654 836.137939,151.248596 823.410950,144.320770 
	C798.912781,130.985321 761.827576,142.184311 757.082581,176.011627 
	C755.855408,184.760284 755.167542,193.650253 755.091797,202.482681 
	C754.846252,231.125595 755.000000,259.771942 755.000000,288.708221 
	C736.054932,288.708221 717.316101,288.708221 698.000000,288.708221 
	C698.000000,251.023468 698.000000,213.261734 698.000000,175.000000 
z"/>
<path fill="#000000" opacity="1.000000" stroke="none" 
	d="
M253.000000,255.000000 
	C253.000000,175.527222 253.000000,96.554428 253.000000,17.290916 
	C272.279510,17.290916 291.351013,17.290916 310.711975,17.290916 
	C310.711975,107.617073 310.711975,198.017487 310.711975,288.709106 
	C291.720490,288.709106 272.648956,288.709106 253.000000,288.709106 
	C253.000000,277.694885 253.000000,266.597443 253.000000,255.000000 
z"/>
<path fill="#000000" opacity="1.000000" stroke="none" 
	d="
M1008.000000,98.000000 
	C1008.000000,161.806976 1008.000000,225.113953 1008.000000,288.710327 
	C988.717957,288.710327 969.646484,288.710327 950.286804,288.710327 
	C950.286804,198.379822 950.286804,107.979584 950.286804,17.289675 
	C969.282043,17.289675 988.353516,17.289675 1008.000000,17.289675 
	C1008.000000,43.977196 1008.000000,70.738594 1008.000000,98.000000 
z"/>
<path fill="#000000" opacity="1.000000" stroke="none" 
	d="
M588.000000,170.000000 
	C588.005310,144.169281 588.009949,118.838570 588.023987,93.507858 
	C588.024170,93.195992 588.144531,92.884193 588.267517,92.287247 
	C607.286682,92.287247 626.357849,92.287247 645.715210,92.287247 
	C645.715210,157.623581 645.715210,223.024338 645.715210,288.712738 
	C626.713379,288.712738 607.642212,288.712738 588.000000,288.712738 
	C588.000000,249.352615 588.000000,209.926300 588.000000,170.000000 
z"/>
<path fill="#FFFFFF" opacity="1.000000" stroke="none" 
	d="
M138.168121,146.672729 
	C153.724045,159.950500 158.475052,177.303101 156.802689,196.252838 
	C154.664352,220.482681 142.949493,238.790253 116.035652,243.588867 
	C93.162720,247.667007 70.647324,237.524460 61.854458,212.390564 
	C54.985062,192.754776 56.238708,173.588745 68.132179,156.239639 
	C76.308182,144.313232 88.139702,137.745575 103.023575,136.919189 
	C115.818085,136.208801 127.549126,138.602692 138.168121,146.672729 
z"/>
<path fill="#FFFFFF" opacity="1.000000" stroke="none" 
	d="
M408.622589,219.861511 
	C412.622894,212.447174 419.363220,208.630539 426.549133,208.280991 
	C443.849243,207.439453 461.217957,208.008347 478.975739,208.008347 
	C478.085968,216.895828 481.315704,226.647110 474.254425,235.618073 
	C466.977112,244.863495 457.753479,249.777420 446.669525,251.969437 
	C438.409790,253.602905 430.319977,252.713440 422.307404,250.084122 
	C410.276581,246.136246 401.855225,233.625336 408.622589,219.861511 
z"/>
</svg>