<svg width="173" height="51" viewBox="0 0 173 51" fill="none" xmlns="http://www.w3.org/2000/svg">
<g clip-path="url(#clip0_3556_48737)">
<path d="M-0.000572458 12.5685H7.55396V15.5801C7.94707 15.2112 8.23259 14.9266 8.53328 14.6628C10.3554 13.059 12.5333 12.3696 14.9071 12.219C19.1334 11.9428 22.8685 13.1059 25.8686 16.1934C27.9582 18.3443 29.0865 20.9787 29.4189 23.9488C29.7679 27.068 29.5362 30.1196 28.0727 32.9571C25.6686 37.6194 21.7278 39.8822 16.5761 40.1212C13.9181 40.2441 11.405 39.7372 9.22294 38.0974C8.80914 37.781 8.42155 37.415 7.92086 36.9853V49.5232H7.09327C4.97831 49.5232 2.86335 49.5232 0.748397 49.5232C0.497361 49.5232 0.247704 49.4804 -0.00195312 49.4569L-0.000572458 12.5685ZM21.601 26.1743C21.5237 25.4904 21.4906 24.7928 21.3637 24.1242C21.1044 22.6492 20.3523 21.3062 19.2308 20.3155C18.1093 19.3248 16.6849 18.7452 15.1913 18.6717C11.8395 18.4935 9.0519 20.3115 8.22155 23.428C7.90275 24.6951 7.79464 26.0061 7.90155 27.3084C8.09327 29.8875 9.3126 31.9404 11.7347 33.0206C14.1154 34.083 16.5085 33.949 18.6768 32.428C20.8161 30.9264 21.5692 28.7161 21.601 26.1743Z" fill="#EEEEEE"/>
<path d="M149.121 50.0053C148.066 49.8216 147 49.6876 145.961 49.4417C144.498 49.0963 143.139 48.4968 141.947 47.4359C142.903 45.5751 143.851 43.7253 144.825 41.8272C146.136 42.8633 147.536 43.4946 149.156 43.5319C151.534 43.5872 152.742 42.3702 153.677 40.0977C153.772 39.867 153.583 39.4871 153.463 39.2053C149.791 30.6321 146.112 22.0617 142.429 13.4941C142.313 13.2178 142.204 12.9498 142.062 12.6017C142.288 12.5892 142.458 12.5699 142.627 12.5699C144.949 12.5699 147.27 12.5851 149.591 12.5547C150.069 12.5547 150.259 12.7149 150.431 13.1349C152.706 18.6827 154.991 24.225 157.287 29.7618C157.425 30.1016 157.578 30.4373 157.785 30.9181L165.415 12.5851H173.001C172.903 12.8254 172.826 13.023 172.743 13.2192C168.65 22.8616 164.548 32.5003 160.44 42.1353C159.871 43.4408 159.165 44.6818 158.334 45.8375C156.506 48.3946 153.889 49.5895 150.812 49.8713C150.523 49.8976 150.237 49.9597 149.95 50.0095L149.121 50.0053Z" fill="#EEEEEE"/>
<path d="M85.8038 0C86.0796 0.0856487 86.3555 0.175443 86.6438 0.255566C88.4645 0.772221 89.6893 2.18957 89.808 3.91774C89.9459 5.92496 88.99 7.62274 87.2217 8.37976C86.4944 8.70426 85.7068 8.87126 84.9105 8.86984C84.1142 8.86841 83.3272 8.69858 82.601 8.37147C81.7779 8.0267 81.0855 7.42893 80.6236 6.66444C80.1618 5.89995 79.9543 5.00826 80.0313 4.11805C80.0976 3.24096 80.4283 2.40471 80.9795 1.71994C81.5307 1.03517 82.2765 0.534155 83.1182 0.283194C83.4162 0.190638 83.7127 0.0939373 84.0107 0H85.8038Z" fill="#EEEEEE"/>
<path d="M73.916 39.7263H66.538V36.7466C66.4346 36.7466 66.3711 36.73 66.3559 36.7466C64.5973 39.1958 62.0442 39.9777 59.2111 40.1131C56.7476 40.2319 54.3503 39.9542 52.1462 38.7151C47.9696 36.3667 46.7958 30.7166 49.7531 27.1332C51.1903 25.3926 53.1269 24.4864 55.2855 24.199C57.4441 23.9117 59.6276 23.8606 61.8028 23.7666C63.1987 23.7059 64.5987 23.7556 65.9959 23.7556C66.0276 20.6432 64.1118 18.7092 60.858 18.5062C57.5476 18.3003 55.0207 18.9897 51.9779 20.9623C51.0455 19.1513 50.1172 17.3485 49.1462 15.4601C49.5338 15.2142 49.88 14.9614 50.2496 14.7694C55.3738 12.0756 60.7724 11.4166 66.3394 12.9279C70.8153 14.1436 73.4277 17.5005 73.7877 22.1407C73.9256 23.8813 73.9036 25.6343 73.9118 27.3818C73.9284 31.225 73.9118 35.0681 73.9118 38.9113L73.916 39.7263ZM65.9697 28.4193C64.0387 28.4193 62.1338 28.3861 60.2331 28.4359C59.4537 28.4532 58.6798 28.5721 57.931 28.7895C56.7379 29.1418 55.9628 29.9306 55.8621 31.2485C55.7517 32.6147 56.3214 33.6066 57.5173 34.2393C58.5242 34.7711 59.6207 34.8844 60.7297 34.8043C63.6663 34.5915 66.7849 32.8219 65.9697 28.4193Z" fill="#EEEEEE"/>
<path d="M123.877 39.7268H115.991V38.9242C115.991 34.4594 116.018 29.9932 115.971 25.5243C115.964 24.468 115.818 23.4173 115.535 22.3995C114.962 20.3923 113.362 19.2084 111.275 19.0564C106.917 18.7401 104.152 21.1838 104.055 25.6224C103.959 30.0609 104.021 34.4636 104.012 38.8841V39.7268H96.1973V12.6231H103.654V15.5766C103.758 15.5424 103.858 15.4961 103.952 15.4385C106.731 12.7516 110.133 11.9849 113.857 12.2308C116.01 12.3758 117.995 13.0223 119.744 14.325C122.282 16.2135 123.406 18.8617 123.724 21.9036C123.837 23.1638 123.886 24.429 123.871 25.6942C123.887 30.1148 123.871 34.5354 123.871 38.956L123.877 39.7268Z" fill="#EEEEEE"/>
<path d="M34.8008 2.35156H42.5953V39.7137H34.8008V2.35156Z" fill="#EEEEEE"/>
<path d="M130.947 2.35156H138.746V39.7221H130.947V2.35156Z" fill="#EEEEEE"/>
<path d="M88.8197 12.625V39.7232H81.0293V12.625H88.8197Z" fill="#EEEEEE"/>
</g>
<defs>
<clipPath id="clip0_3556_48737">
<rect width="173" height="50.0078" fill="white"/>
</clipPath>
</defs>
</svg>
